# xmcd
#
# Track frame offsets: 
#        150
#        12862
#        25425
#        38142
#        51595
#        64425
#        77467
#        89052
#        100260
#        112732
#        125022
#        133947
#        144977
#        152750
#        161557
#        169077
#        175047
#        180057
#        188985
#        193555
#        200807
#        211072
#
# Disc length: 2958 seconds
#
# Revision: 0
# Processed by: cddbd v1.5.1PL0 Copyright (c) Steve Scherf et al.
# Submitted via: ExactAudioCopy v0.95a4
#
DISCID=320b8c16
DTITLE=Rex Griffin - The Last Letter - Disc 3
DYEAR=1900
DGENRE=Country
TTITLE0=How Can I Be Sure (1946)
TTITLE1=I'm Crying Inside (1949)
TTITLE2=I Don't Mean To Be Mean (1947)
TTITLE3=A Thousand Times Or More (1949)
TTITLE4=I'm Free As The Breeze (1946)
TTITLE5=I Lost Again (1947)
TTITLE6=Buddy Griffin - Misery (1948) 
TTITLE7=Buddy Griffin - The Same Tear Twice (1948)
TTITLE8=Buddy Griffin - The Last Letter (1996)
TTITLE9=Buddy Griffin - No Love, No Heartaches (1996)
TTITLE10=Buddy Griffin - If You Call That Gone Goodbye (1996)
TTITLE11=Buddy Griffin - You Got To Go To Work (1996)
TTITLE12=Buddy Griffin - The Gods Of Love (1996)
TTITLE13=Buddy Griffin - Shuckin' Corn (1996)
TTITLE14=Buddy Griffin - High And Dry (1996)
TTITLE15=Buddy Griffin - Don't Talk About Your Love Affair To Me (1996
TTITLE15=)
TTITLE16=Buddy Griffin - Don't Hold Your Breath (1996)
TTITLE17=Buddy Griffin - My Carolina Mountain Home (1996)
TTITLE18=Buddy Griffin - Let Me Walk Along Beside You (1996)
TTITLE19=Buddy Griffin - Just Wait And See (1996)
TTITLE20=Buddy Griffin - Bartender's Girl (1955)
TTITLE21=Buddy Griffin - A Red Rose, A Bouquet Or A Roomful (1955)
EXTD=
EXTT0=
EXTT1=
EXTT2=
EXTT3=
EXTT4=
EXTT5=
EXTT6=
EXTT7=
EXTT8=
EXTT9=
EXTT10=
EXTT11=
EXTT12=
EXTT13=
EXTT14=
EXTT15=
EXTT16=
EXTT17=
EXTT18=
EXTT19=
EXTT20=
EXTT21=
PLAYORDER=
